<svg width="60" height="60" viewBox="0 0 60 60" fill="none" xmlns="http://www.w3.org/2000/svg">
<g clip-path="url(#clip0_3839_862)">
<path d="M60 30.1812C59.998 13.5125 46.5684 0 30 0C13.4316 0 0 13.5145 0 30.1852C0 45.1912 10.8829 57.6389 25.1387 59.9758L25.3107 60V38.909H17.6927V30.1812H25.3107V23.5346C25.2727 23.1985 25.2527 22.808 25.2527 22.4134C25.2527 16.5298 29.994 11.7593 35.8416 11.7593C36.1236 11.7593 36.4037 11.7713 36.6818 11.7915L36.6458 11.7895C39.0444 11.8237 41.365 12.037 43.6296 12.4175L43.3616 12.3792V19.8068H39.5766C39.4045 19.7826 39.2065 19.7685 39.0064 19.7685C36.6118 19.7685 34.6692 21.721 34.6692 24.1324C34.6692 24.2693 34.6752 24.4042 34.6872 24.5391L34.6852 24.5209V30.1812H43.0055L41.6751 38.909H34.6852V60C49.1151 57.6369 59.998 45.1872 60 30.1812Z" fill="#0066FF"/>
</g>
<defs>
<clipPath id="clip0_3839_862">
<rect width="60" height="60" fill="white"/>
</clipPath>
</defs>
</svg>
