<svg xmlns="http://www.w3.org/2000/svg" width="14" height="40" viewBox="0 0 14 40" fill="none">
<path d="M11.8339 27.8249C9.3025 31.1443 6.18538 32.7098 4.63728 32.7098C3.3193 32.7098 2.72656 31.4162 3.61916 27.6331C4.41762 24.3173 5.73211 19.3243 6.61425 15.5273C6.83391 14.5196 6.7851 14.0873 6.46781 14.0873C5.98315 14.0873 4.59195 15.0043 3.3716 16.1584L2.72656 14.8474C5.17424 12.2567 8.4901 10.2658 10.0835 10.2658C11.3701 10.2658 11.4817 11.8837 10.5752 15.6284C9.68953 19.0244 8.54589 23.7803 7.7021 27.138C7.36389 28.4281 7.36389 28.986 7.70908 28.986C8.1763 28.986 9.46289 28.3096 11.133 26.5523L11.8373 27.8214L11.8339 27.8249ZM13.0926 2.68221C13.0926 4.2617 11.9594 5.66335 10.345 5.66335C9.041 5.66335 8.06821 4.74983 8.06821 3.33772C8.06821 2.00928 9.09679 0.325195 10.9692 0.325195C12.3813 0.325195 13.0926 1.40259 13.0926 2.68221Z" fill="white"/>
<path d="M12.6535 35.6109C11.1298 34.4777 9.54338 34.2092 7.9395 34.795C7.23169 35.0565 6.59711 35.4784 5.93812 36.1234C5.69405 36.364 5.35933 36.6673 4.95487 36.8696C4.34818 37.1729 3.78682 37.1799 3.17316 36.9044C2.8733 36.7684 2.58042 36.5732 2.28753 36.3117C1.78196 35.8654 1.0358 35.8619 0.554638 36.3012C0.310568 36.5244 0.164126 36.8382 0.164126 37.1659C0.16064 37.5041 0.300108 37.8214 0.554638 38.062C1.36704 38.8221 2.29102 39.2963 3.29171 39.4707H3.30914C3.57413 39.5125 3.82866 39.5334 4.0797 39.5334C4.58528 39.5334 5.06993 39.4532 5.54064 39.2893C6.29377 39.0244 6.97716 38.592 7.62569 37.9609C7.8872 37.7099 8.16962 37.4484 8.49388 37.2566C9.21563 36.8242 9.90252 36.8138 10.6591 37.2287C10.8823 37.3507 11.095 37.5041 11.3146 37.6959C11.8551 38.1736 12.6012 38.1771 13.0929 37.7029C13.3334 37.4693 13.4659 37.1694 13.4625 36.8486C13.459 36.5104 13.3055 36.1827 13.0301 35.9247C12.9081 35.8131 12.786 35.705 12.6535 35.6039V35.6109Z" fill="white"/>
</svg>