<svg width="60" height="60" viewBox="0 0 60 60" fill="none" xmlns="http://www.w3.org/2000/svg">
<mask id="mask0_3839_846" style="mask-type:alpha" maskUnits="userSpaceOnUse" x="0" y="0" width="60" height="60">
<circle cx="30" cy="30" r="30" fill="#D9D9D9"/>
</mask>
<g mask="url(#mask0_3839_846)">
<path d="M50 -5H10C1.71573 -5 -5 1.71573 -5 10V50C-5 58.2843 1.71573 65 10 65H50C58.2843 65 65 58.2843 65 50V10C65 1.71573 58.2843 -5 50 -5Z" fill="url(#paint0_radial_3839_846)"/>
<path d="M50 -5H10C1.71573 -5 -5 1.71573 -5 10V50C-5 58.2843 1.71573 65 10 65H50C58.2843 65 65 58.2843 65 50V10C65 1.71573 58.2843 -5 50 -5Z" fill="url(#paint1_radial_3839_846)"/>
<path d="M50 -5H10C1.71573 -5 -5 1.71573 -5 10V50C-5 58.2843 1.71573 65 10 65H50C58.2843 65 65 58.2843 65 50V10C65 1.71573 58.2843 -5 50 -5Z" fill="url(#paint2_radial_3839_846)"/>
</g>
<path d="M40.5625 21.0312C40.5625 22.3256 39.5131 23.375 38.2188 23.375C36.9244 23.375 35.875 22.3256 35.875 21.0312C35.875 19.7368 36.9244 18.6875 38.2188 18.6875C39.5131 18.6875 40.5625 19.7368 40.5625 21.0312Z" fill="white"/>
<path fill-rule="evenodd" clip-rule="evenodd" d="M29.625 37.4375C33.9397 37.4375 37.4375 33.9397 37.4375 29.625C37.4375 25.3103 33.9397 21.8125 29.625 21.8125C25.3103 21.8125 21.8125 25.3103 21.8125 29.625C21.8125 33.9397 25.3103 37.4375 29.625 37.4375ZM29.625 34.3125C32.2139 34.3125 34.3125 32.2139 34.3125 29.625C34.3125 27.0361 32.2139 24.9375 29.625 24.9375C27.0361 24.9375 24.9375 27.0361 24.9375 29.625C24.9375 32.2139 27.0361 34.3125 29.625 34.3125Z" fill="white"/>
<path fill-rule="evenodd" clip-rule="evenodd" d="M14 29C14 23.7495 14 21.1242 15.0218 19.1188C15.9206 17.3548 17.3548 15.9206 19.1188 15.0218C21.1242 14 23.7495 14 29 14H30.25C35.5005 14 38.1258 14 40.1311 15.0218C41.8952 15.9206 43.3294 17.3548 44.2281 19.1188C45.25 21.1242 45.25 23.7495 45.25 29V30.25C45.25 35.5005 45.25 38.1258 44.2281 40.1311C43.3294 41.8952 41.8952 43.3294 40.1311 44.2281C38.1258 45.25 35.5005 45.25 30.25 45.25H29C23.7495 45.25 21.1242 45.25 19.1188 44.2281C17.3548 43.3294 15.9206 41.8952 15.0218 40.1311C14 38.1258 14 35.5005 14 30.25V29ZM29 17.125H30.25C32.9269 17.125 34.7464 17.1274 36.153 17.2423C37.5231 17.3543 38.2237 17.5572 38.7125 17.8062C39.8884 18.4054 40.8445 19.3615 41.4437 20.5375C41.6928 21.0263 41.8958 21.7269 42.0077 23.097C42.1225 24.5036 42.125 26.3231 42.125 29V30.25C42.125 32.9269 42.1225 34.7464 42.0077 36.153C41.8958 37.5231 41.6928 38.2237 41.4437 38.7125C40.8445 39.8884 39.8884 40.8445 38.7125 41.4437C38.2237 41.6928 37.5231 41.8958 36.153 42.0077C34.7464 42.1225 32.9269 42.125 30.25 42.125H29C26.3231 42.125 24.5036 42.1225 23.097 42.0077C21.7269 41.8958 21.0263 41.6928 20.5375 41.4437C19.3615 40.8445 18.4054 39.8884 17.8062 38.7125C17.5572 38.2237 17.3543 37.5231 17.2423 36.153C17.1274 34.7464 17.125 32.9269 17.125 30.25V29C17.125 26.3231 17.1274 24.5036 17.2423 23.097C17.3543 21.7269 17.5572 21.0263 17.8062 20.5375C18.4054 19.3615 19.3615 18.4054 20.5375 17.8062C21.0263 17.5572 21.7269 17.3543 23.097 17.2423C24.5036 17.1274 26.3231 17.125 29 17.125Z" fill="white"/>
<defs>
<radialGradient id="paint0_radial_3839_846" cx="0" cy="0" r="1" gradientUnits="userSpaceOnUse" gradientTransform="translate(20 47.5) rotate(-55.3758) scale(63.799)">
<stop stop-color="#B13589"/>
<stop offset="0.79309" stop-color="#C62F94"/>
<stop offset="1" stop-color="#8A3AC8"/>
</radialGradient>
<radialGradient id="paint1_radial_3839_846" cx="0" cy="0" r="1" gradientUnits="userSpaceOnUse" gradientTransform="translate(17.5 67.5) rotate(-65.1363) scale(56.4855)">
<stop stop-color="#E0E8B7"/>
<stop offset="0.444662" stop-color="#FB8A2E"/>
<stop offset="0.71474" stop-color="#E2425C"/>
<stop offset="1" stop-color="#E2425C" stop-opacity="0"/>
</radialGradient>
<radialGradient id="paint2_radial_3839_846" cx="0" cy="0" r="1" gradientUnits="userSpaceOnUse" gradientTransform="translate(-8.75 -2.5) rotate(-8.1301) scale(97.2273 20.7959)">
<stop offset="0.156701" stop-color="#406ADC"/>
<stop offset="0.467799" stop-color="#6A45BE"/>
<stop offset="1" stop-color="#6A45BE" stop-opacity="0"/>
</radialGradient>
</defs>
</svg>
