<svg width="60" height="60" viewBox="0 0 60 60" fill="none" xmlns="http://www.w3.org/2000/svg">
<g clip-path="url(#clip0_3839_878)">
<circle cx="30" cy="30" r="30" fill="#F9F9F9"/>
<path d="M19.1667 24.9375C19.1667 25.5933 19.6983 26.125 20.3542 26.125C21.01 26.125 21.5417 25.5933 21.5417 24.9375H19.1667ZM20.3542 20.1875V19C19.6983 19 19.1667 19.5317 19.1667 20.1875H20.3542ZM25.1042 21.375C25.76 21.375 26.2917 20.8433 26.2917 20.1875C26.2917 19.5317 25.76 19 25.1042 19V21.375ZM38.1667 24.9375C38.1667 25.5933 38.6983 26.125 39.3542 26.125C40.01 26.125 40.5417 25.5933 40.5417 24.9375H38.1667ZM39.3542 20.1875H40.5417C40.5417 19.5317 40.01 19 39.3542 19V20.1875ZM34.6042 19C33.9483 19 33.4167 19.5317 33.4167 20.1875C33.4167 20.8433 33.9483 21.375 34.6042 21.375V19ZM40.5417 34.4375C40.5417 33.7817 40.01 33.25 39.3542 33.25C38.6983 33.25 38.1667 33.7817 38.1667 34.4375H40.5417ZM39.3542 39.1875V40.375C40.01 40.375 40.5417 39.8433 40.5417 39.1875H39.3542ZM34.6042 38C33.9483 38 33.4167 38.5317 33.4167 39.1875C33.4167 39.8433 33.9483 40.375 34.6042 40.375V38ZM21.5417 34.4375C21.5417 33.7817 21.01 33.25 20.3542 33.25C19.6983 33.25 19.1667 33.7817 19.1667 34.4375H21.5417ZM20.3542 39.1875H19.1667C19.1667 39.8433 19.6983 40.375 20.3542 40.375V39.1875ZM25.1042 40.375C25.76 40.375 26.2917 39.8433 26.2917 39.1875C26.2917 38.5317 25.76 38 25.1042 38V40.375ZM42.5208 30.875C43.1766 30.875 43.7083 30.3433 43.7083 29.6875C43.7083 29.0317 43.1766 28.5 42.5208 28.5V30.875ZM17.1875 28.5C16.5317 28.5 16 29.0317 16 29.6875C16 30.3433 16.5317 30.875 17.1875 30.875V28.5ZM21.5417 24.9375V20.1875H19.1667V24.9375H21.5417ZM20.3542 21.375H25.1042V19H20.3542V21.375ZM40.5417 24.9375V20.1875H38.1667V24.9375H40.5417ZM39.3542 19H34.6042V21.375H39.3542V19ZM38.1667 34.4375V39.1875H40.5417V34.4375H38.1667ZM39.3542 38H34.6042V40.375H39.3542V38ZM19.1667 34.4375V39.1875H21.5417V34.4375H19.1667ZM20.3542 40.375H25.1042V38H20.3542V40.375ZM42.5208 28.5H17.1875V30.875H42.5208V28.5Z" fill="black"/>
</g>
<defs>
<clipPath id="clip0_3839_878">
<rect width="60" height="60" fill="white"/>
</clipPath>
</defs>
</svg>
