<svg width="60" height="60" viewBox="0 0 60 60" fill="none" xmlns="http://www.w3.org/2000/svg">
<g clip-path="url(#clip0_3839_834)">
<circle cx="30" cy="30" r="30" fill="#F9F9F9"/>
<path fill-rule="evenodd" clip-rule="evenodd" d="M22.5858 28.6665C20.2194 29.9463 19.3385 32.9021 20.6183 35.2685C21.8981 37.6349 24.8539 38.5158 27.2203 37.236L29.3627 36.0774C31.7291 34.7976 32.61 31.8417 31.3302 29.4753C31.0102 28.8837 31.2305 28.1448 31.8221 27.8248C32.4137 27.5049 33.1526 27.7251 33.4726 28.3167C35.3922 31.8663 34.0709 36.3001 30.5213 38.2198L28.3789 39.3784C24.8293 41.2981 20.3956 39.9767 18.4759 36.4271C16.5562 32.8775 17.8775 28.4438 21.4271 26.5241L21.9627 26.2344C22.5543 25.9145 23.2933 26.1347 23.6132 26.7263C23.9332 27.3179 23.713 28.0569 23.1214 28.3768L22.5858 28.6665ZM31.1553 24.032C28.7889 25.3117 27.908 28.2676 29.1878 30.634C29.5077 31.2256 29.2875 31.9645 28.6959 32.2845C28.1043 32.6044 27.3654 32.3842 27.0454 31.7926C25.1257 28.243 26.4471 23.8092 29.9967 21.8896L32.139 20.7309C35.6886 18.8113 40.1224 20.1326 42.0421 23.6822C43.9617 27.2318 42.6404 31.6656 39.0908 33.5852L38.5552 33.8749C37.9636 34.1948 37.2247 33.9746 36.9047 33.383C36.5848 32.7914 36.805 32.0524 37.3966 31.7325L37.9322 31.4428C40.2986 30.1631 41.1795 27.2072 39.8997 24.8408C38.6199 22.4744 35.6641 21.5935 33.2977 22.8733L31.1553 24.032Z" fill="black"/>
</g>
<defs>
<clipPath id="clip0_3839_834">
<rect width="60" height="60" fill="white"/>
</clipPath>
</defs>
</svg>
