<svg width="60" height="60" viewBox="0 0 60 60" fill="none" xmlns="http://www.w3.org/2000/svg">
<path d="M57.7083 29.7231C57.7065 43.347 47.6698 54.6747 34.3235 56.8265L34.3006 56.8302L34.2778 56.8347C31.4522 57.3952 28.5443 57.3984 25.7175 56.8442L25.5492 56.8112L25.528 56.807L25.5065 56.8036C12.3328 54.6774 2.29167 43.3553 2.29167 29.7271C2.29167 14.5865 14.6857 2.29167 30 2.29167C45.3143 2.29167 57.7065 14.5843 57.7083 29.7231ZM57.7083 29.7231L59 29.7233M57.7083 29.7231L59 29.7233M59 29.7233C58.9981 44.0044 48.4779 55.8527 34.5291 58.1017L25.3007 58.0787C11.5201 55.8546 1 44.0083 1 29.7271C1 13.8617 13.9839 1 30 1C46.0161 1 58.9981 13.8598 59 29.7233Z" stroke="url(#paint0_linear_3839_835)" stroke-width="2.58333"/>
<path d="M54.8829 29.7464C54.8812 16.1963 43.7421 5.21191 29.9995 5.21191C16.257 5.21191 5.11621 16.1979 5.11621 29.7496C5.11621 41.9481 14.143 52.0669 25.9674 53.9666L26.1101 53.9863V36.8413H19.7913V29.7464H26.1101V24.3434C26.0785 24.0701 26.0619 23.7527 26.0619 23.4319C26.0619 18.6491 29.9946 14.7711 34.8448 14.7711C35.0788 14.7711 35.3111 14.7809 35.5417 14.7973L35.5118 14.7956C37.5014 14.8234 39.4262 14.9969 41.3046 15.3062L41.0822 15.2751V21.313H37.9428C37.8001 21.2933 37.6358 21.2819 37.4698 21.2819C35.4836 21.2819 33.8724 22.8691 33.8724 24.8293C33.8724 24.9406 33.8774 25.0502 33.8874 25.1599L33.8857 25.1451V29.7464H40.7868L39.6834 36.8413H33.8857V53.9863C45.8544 52.0653 54.8812 41.9449 54.8829 29.7464Z" fill="#0066FF"/>
<defs>
<linearGradient id="paint0_linear_3839_835" x1="30" y1="1" x2="30" y2="59" gradientUnits="userSpaceOnUse">
<stop stop-color="#00D1FF"/>
<stop offset="1" stop-color="#3284FF"/>
</linearGradient>
</defs>
</svg>
