<svg width="69" height="96" viewBox="0 0 69 96" fill="none" xmlns="http://www.w3.org/2000/svg">
<path d="M29.0557 48.9576C27.368 48.9576 26.002 47.5916 26.002 45.9038V35.7529C26.002 34.0651 27.368 32.6991 29.0557 32.6991C30.7435 32.6991 32.1095 31.3331 32.1095 29.6453V22.9792C32.1095 15.4207 33.9248 9.70167 37.5553 5.82221C41.1858 1.94276 46.2188 0 52.6542 0C56.309 0 59.6299 0.516046 62.6169 1.55421C64.4626 2.19168 66.035 2.84736 67.3403 3.52126C68.6456 4.19515 69.2527 5.6158 68.9006 6.99394L66.6725 15.6878C66.2353 17.3999 64.4322 18.3955 62.7626 17.8248C61.0931 17.2542 59.4053 16.9324 57.8875 16.9324C54.0263 16.9324 52.0957 19.1969 52.0957 23.7199V29.6332C52.0957 31.321 53.4617 32.687 55.1494 32.687H60.9413C62.6291 32.687 63.9951 34.053 63.9951 35.7407V45.8917C63.9951 47.5794 62.6291 48.9454 60.9413 48.9454H55.1494C53.4617 48.9454 52.0957 50.3115 52.0957 51.9992V92.0383C52.0957 93.7261 50.7297 95.0921 49.0419 95.0921H35.1572C33.4694 95.0921 32.1034 93.7261 32.1034 92.0383V51.9992C32.1034 50.3115 30.7374 48.9454 29.0497 48.9454L29.0557 48.9576Z" fill="white"/>
<path d="M20.3207 68.8161C15.913 74.5958 10.4855 77.3218 7.78987 77.3218C5.49498 77.3218 4.46289 75.0694 6.0171 68.4822C7.40739 62.7085 9.6962 54.0147 11.2322 47.4032C11.6147 45.6487 11.5297 44.8959 10.9772 44.8959C10.1333 44.8959 7.71095 46.4926 5.58605 48.5021L4.46289 46.2194C8.72482 41.7085 14.4985 38.2419 17.273 38.2419C19.5132 38.2419 19.7075 41.0589 18.129 47.5793C16.5869 53.4926 14.5956 61.7736 13.1264 67.6201C12.5375 69.8664 12.5375 70.8378 13.1385 70.8378C13.9521 70.8378 16.1923 69.66 19.1004 66.6001L20.3268 68.81L20.3207 68.8161ZM22.5124 25.0372C22.5124 27.7874 20.5392 30.228 17.7283 30.228C15.4577 30.228 13.7639 28.6374 13.7639 26.1786C13.7639 23.8655 15.5548 20.9331 18.815 20.9331C21.2738 20.9331 22.5124 22.8091 22.5124 25.0372Z" fill="white"/>
<path d="M21.7469 82.373C19.0938 80.3999 16.3314 79.9324 13.5387 80.9523C12.3063 81.4077 11.2013 82.1423 10.0539 83.2654C9.62892 83.6843 9.04609 84.2125 8.34184 84.5647C7.28547 85.0929 6.30802 85.105 5.2395 84.6254C4.71738 84.3886 4.2074 84.0486 3.69743 83.5933C2.81712 82.8162 1.51789 82.8101 0.680078 83.5751C0.255099 83.9636 0.000111145 84.51 0.000111145 85.0807C-0.00595998 85.6696 0.236885 86.2221 0.680078 86.641C2.09465 87.9645 3.7035 88.7902 5.44591 89.0937H5.47627C5.93768 89.1666 6.38087 89.203 6.81799 89.203C7.6983 89.203 8.54219 89.0634 9.36179 88.778C10.6732 88.3166 11.8631 87.5638 12.9923 86.4649C13.4477 86.0278 13.9394 85.5725 14.504 85.2386C15.7608 84.4857 16.9568 84.4675 18.2742 85.19C18.6628 85.4025 19.0331 85.6696 19.4156 86.0035C20.3566 86.8353 21.6558 86.8413 22.5119 86.0157C22.9308 85.6089 23.1615 85.0868 23.1554 84.5282C23.1493 83.9393 22.8822 83.3686 22.4026 82.9194C22.1901 82.7251 21.9776 82.5369 21.7469 82.3608V82.373Z" fill="white"/>
</svg>
