<svg width="60" height="60" viewBox="0 0 60 60" fill="none" xmlns="http://www.w3.org/2000/svg">
<g clip-path="url(#clip0_3839_835)">
<circle cx="30" cy="30" r="30" fill="#10C122"/>
<path d="M22.0187 24.6748C22.171 23.4699 23.737 21.8322 24.9798 22.0139L24.9779 22.0119C26.1873 22.2418 27.1448 24.3235 27.6847 25.2595C28.0672 25.9387 27.8188 26.6268 27.462 26.9172C26.9807 27.3051 26.228 27.8404 26.3859 28.3779C26.6667 29.3333 30 32.6667 31.6395 33.6143C32.26 33.9729 32.71 33.0269 33.0943 32.5423C33.3735 32.1695 34.0621 31.9467 34.7397 32.3147C35.7517 32.904 36.7051 33.5889 37.5867 34.36C38.0269 34.728 38.1303 35.2719 37.8252 35.8467C37.2879 36.8591 35.7337 38.1941 34.6056 37.9228C32.6352 37.4491 24.6667 34.36 22.1071 25.4107C21.9632 24.9873 21.9994 24.8273 22.0187 24.6748Z" fill="white"/>
<path fill-rule="evenodd" clip-rule="evenodd" d="M29.9997 44.6663C28.3682 44.6663 27.4655 44.4913 25.9997 43.9997L23.1922 45.4034C21.4192 46.2899 19.333 45.0006 19.333 43.0182V39.9997C16.4617 37.3223 15.333 34.2353 15.333 29.9997C15.333 21.8995 21.8995 15.333 29.9997 15.333C38.0998 15.333 44.6663 21.8995 44.6663 29.9997C44.6663 38.0998 38.0998 44.6663 29.9997 44.6663ZM21.9997 38.8401L21.1516 38.0493C18.9208 35.9693 17.9997 33.6438 17.9997 29.9997C17.9997 23.3723 23.3723 17.9997 29.9997 17.9997C36.6271 17.9997 41.9997 23.3723 41.9997 29.9997C41.9997 36.6271 36.6271 41.9997 29.9997 41.9997C28.6854 41.9997 28.069 41.881 26.8476 41.4714L25.7976 41.1193L21.9997 43.0182V38.8401Z" fill="white"/>
</g>
<defs>
<clipPath id="clip0_3839_835">
<rect width="60" height="60" fill="white"/>
</clipPath>
</defs>
</svg>
