<svg xmlns="http://www.w3.org/2000/svg" version="1.1" xmlns:xlink="http://www.w3.org/1999/xlink" xmlns:svgjs="http://svgjs.dev/svgjs" width="500" height="500"><svg width="500" height="500" viewBox="0 0 500 500" fill="none" xmlns="http://www.w3.org/2000/svg">
<rect width="500" height="500" rx="36" fill="#1B3675"></rect>
<g clip-path="url(#clip0_2862_54)">
<path d="M285.744 306.25C267.794 329.787 245.691 340.889 234.713 340.889C225.367 340.889 221.164 331.716 227.494 304.89C233.155 281.377 242.477 245.972 248.732 219.047C250.29 211.901 249.943 208.836 247.693 208.836C244.257 208.836 234.392 215.338 225.738 223.522L221.164 214.226C238.521 195.855 262.034 181.738 273.333 181.738C282.456 181.738 283.247 193.21 276.819 219.764C270.539 243.845 262.429 277.57 256.446 301.379C254.048 310.527 254.048 314.483 256.495 314.483C259.809 314.483 268.932 309.687 280.775 297.225L285.769 306.225L285.744 306.25ZM294.67 127.962C294.67 139.162 286.634 149.101 275.187 149.101C265.94 149.101 259.042 142.624 259.042 132.61C259.042 123.19 266.335 111.248 279.613 111.248C289.626 111.248 294.67 118.888 294.67 127.962Z" fill="white"></path>
<path d="M291.563 361.463C280.759 353.427 269.509 351.523 258.136 355.677C253.117 357.532 248.617 360.523 243.944 365.097C242.213 366.803 239.84 368.954 236.972 370.388C232.67 372.539 228.689 372.589 224.338 370.636C222.211 369.671 220.134 368.287 218.058 366.432C214.473 363.268 209.182 363.243 205.77 366.358C204.039 367.94 203 370.166 203 372.49C202.976 374.888 203.965 377.138 205.77 378.844C211.53 384.234 218.082 387.597 225.178 388.833H225.302C227.181 389.129 228.986 389.278 230.766 389.278C234.351 389.278 237.788 388.709 241.126 387.547C246.466 385.668 251.312 382.602 255.911 378.127C257.765 376.347 259.768 374.493 262.067 373.133C267.185 370.067 272.056 369.993 277.421 372.935C279.004 373.8 280.512 374.888 282.069 376.248C285.902 379.635 291.192 379.66 294.679 376.298C296.385 374.641 297.324 372.515 297.3 370.24C297.275 367.841 296.187 365.517 294.234 363.688C293.368 362.897 292.503 362.13 291.563 361.413V361.463Z" fill="white"></path>
</g>
<defs>
<clipPath id="SvgjsClipPath1001">
<rect width="94" height="278" fill="white" transform="translate(203 111)"></rect>
</clipPath>
</defs>
</svg><style>@media (prefers-color-scheme: light) { :root { filter: none; } }
@media (prefers-color-scheme: dark) { :root { filter: none; } }
</style></svg>