<svg width="53" height="53" viewBox="0 0 53 53" fill="none" xmlns="http://www.w3.org/2000/svg">
<g clip-path="url(#clip0_1_41)">
<path d="M52.9994 13.3612V39.6479C52.9139 40.2066 52.862 40.7717 52.7376 41.3213C51.412 47.1749 47.8615 50.9287 42.0874 52.5723C41.2904 52.7991 40.4598 52.8315 39.6525 52.9987H13.3735C13.205 52.9689 13.0379 52.9287 12.8681 52.9119C11.4349 52.7641 10.0342 52.4453 8.73706 51.8335C3.1249 49.184 0.126392 44.7394 0.0512345 38.528C-0.0459514 30.5085 0.0240225 22.4877 0.0292057 14.4681C0.0305015 11.9561 0.576038 9.56073 1.855 7.3935C4.71745 2.53667 9.00659 0.0518693 14.6395 0.0220569C22.5543 -0.0194212 30.4678 0.0116874 38.3826 0.0116874C39.3843 0.0116874 40.3873 0.0609427 41.3643 0.283888C47.2006 1.61378 50.9365 5.16924 52.5744 10.9308C52.8011 11.7267 52.8374 12.5562 52.9994 13.3625V13.3612ZM49.8959 26.5033C49.8959 22.5538 49.8933 18.6056 49.8972 14.6561C49.8972 13.7565 49.8402 12.8608 49.6329 11.9859C48.3604 6.62227 43.9598 3.12644 38.4578 3.11996C30.4924 3.11088 22.5284 3.11866 14.563 3.11607C13.6987 3.11607 12.837 3.17828 11.9973 3.3779C6.63655 4.65076 3.14175 9.05263 3.13527 14.5563C3.1262 22.524 3.13527 30.4904 3.13138 38.458C3.13138 39.3058 3.19358 40.1509 3.37758 40.9752C4.55936 46.265 9.02732 49.8749 14.4645 49.8892C22.4986 49.9099 30.5326 49.8956 38.5667 49.8931C40.189 49.8931 41.7673 49.6131 43.229 48.9028C47.5777 46.7887 49.8195 43.2838 49.8856 38.4542C49.94 34.471 49.8972 30.4865 49.8972 26.5033H49.8959Z" fill="white"/>
<path d="M40.9966 26.5238C40.9746 34.4967 34.4424 41.0139 26.4952 40.9919C18.5246 40.9699 12.0093 34.4358 12.0313 26.4862C12.0533 18.5133 18.5855 11.9961 26.5327 12.0181C34.5033 12.0402 41.0186 18.5743 40.9966 26.5238ZM26.499 37.8862C32.75 37.9005 37.8892 32.7689 37.8905 26.5083C37.8931 20.2684 32.8096 15.164 26.5548 15.1251C20.3141 15.0862 15.1633 20.2075 15.1361 26.4784C15.1102 32.7274 20.2338 37.872 26.499 37.8862Z" fill="white"/>
<path d="M37.0685 11.172C37.0516 8.84793 38.9798 6.89975 41.3239 6.86994C43.6279 6.84142 45.5923 8.78701 45.626 11.1305C45.6597 13.4339 43.7017 15.4093 41.3654 15.43C39.0394 15.4507 37.0853 13.5129 37.0685 11.172ZM42.5083 11.1681C42.5187 10.5524 41.9951 10.008 41.3732 9.98987C40.7615 9.97043 40.2082 10.4915 40.1797 11.1124C40.1512 11.741 40.7058 12.3178 41.3421 12.3204C41.9563 12.323 42.4979 11.7877 42.5083 11.1681Z" fill="white"/>
</g>
<defs>
<clipPath id="clip0_1_41">
<rect width="53" height="53" fill="white"/>
</clipPath>
</defs>
</svg>
