<svg width="59" height="58" viewBox="0 0 59 58" fill="none" xmlns="http://www.w3.org/2000/svg">
<g clip-path="url(#clip0_1_45)">
<path d="M8.55899e-06 29.0015C-0.0116873 13.8803 11.9649 1.169 27.2544 0.0778065C43.0409 -1.04793 56.7866 10.0079 58.7807 25.4285C60.6959 40.2416 49.9766 54.666 34.9971 57.4789C30.883 58.2506 26.807 58.1555 22.7398 57.2285C21.6579 56.9809 21.3684 56.5893 21.8421 55.7716C23.7485 52.4808 24.5439 48.8243 25.5234 45.2254C25.8977 43.8549 26.2632 43.7196 27.3626 44.5632C30.7895 47.1918 34.5351 47.0191 38.3538 45.6832C41.5556 44.5632 44.0234 42.4585 45.8655 39.6802C49.038 34.898 50.114 29.6176 49.1111 24.0321C48.2076 18.9937 45.3129 15.1644 40.9006 12.4811C33.7281 8.11921 23.0088 8.7411 16.3655 13.8688C9.63159 19.0685 7.50878 28.7165 11.5322 35.8855C12.5 37.6101 13.7369 39.0813 15.5292 40.0545C16.3509 40.5007 16.8246 40.3625 16.9912 39.4268C17.0234 39.2512 17.0468 39.0698 17.1111 38.9028C17.7953 37.1091 17.6023 35.5832 16.617 33.7751C12.4766 26.1828 17.8304 16.4716 26.6608 15.199C29.424 14.8017 32.1316 14.9312 34.7252 15.9648C39.2632 17.7729 41.7983 21.1847 42.3246 25.9208C42.7369 29.6263 42.1608 33.2425 40.3246 36.5592C38.845 39.2339 36.7281 41.1457 33.5263 41.615C29.7398 42.1706 27.1053 39.3405 28.0614 35.7041C28.8275 32.7904 29.7456 29.9142 30.4123 26.9804C30.9708 24.536 29.9825 22.486 28.1988 21.7663C26.1871 20.9544 23.8421 21.7807 22.4094 23.8392C21.1111 25.7049 20.579 27.8585 21.0117 30.0006C21.8216 34.0026 20.848 37.7512 19.9561 41.5689C19.1257 45.1246 18.5059 48.7293 17.8187 52.3167C17.731 52.7687 17.7924 53.2466 17.8041 53.7131C17.8421 55.1814 17.3567 55.5067 16.0497 54.8445C12.0614 52.8263 8.71053 50.0537 6.00001 46.5354C2.12574 41.5056 0.00585651 35.2953 8.55899e-06 29.0015Z" fill="white"/>
</g>
<defs>
<clipPath id="clip0_1_45">
<rect width="59" height="58" fill="white"/>
</clipPath>
</defs>
</svg>
