<svg width="76" height="55" viewBox="0 0 76 55" fill="none" xmlns="http://www.w3.org/2000/svg">
<g clip-path="url(#clip0_1_47)">
<path d="M76 23.6539C75.9777 26.3582 75.9555 29.003 75.9347 31.7073C75.8545 32.1657 75.8783 32.6345 75.8575 33.0974C75.6957 36.665 75.4404 40.2206 74.8139 43.7435C73.8075 49.4081 70.3724 52.8625 64.7701 53.7585C60.4191 54.455 56.0206 54.5994 51.6281 54.7602C44.6155 55.0161 37.5985 55.0682 30.5829 54.9135C24.1314 54.7721 17.677 54.6664 11.2656 53.7764C6.36686 53.0962 2.41819 49.4081 1.36422 44.5636C0.7452 41.7179 0.507686 38.823 0.285017 35.9252C0.169229 34.4265 0.230092 32.9173 0 31.4275L0.0668008 23.2282C0.148446 22.7684 0.121726 22.2995 0.143993 21.8352C0.305799 18.2929 0.562611 14.7611 1.1846 11.2635C2.19403 5.57062 5.81761 1.98968 11.3725 1.20235C13.9213 0.842171 16.482 0.611479 19.0486 0.481994C28.1662 0.0220976 37.2897 -0.123759 46.4162 0.108421C52.4713 0.26172 58.5294 0.37781 64.5459 1.1964C69.9271 1.92866 73.5492 5.27742 74.6714 10.6012C75.2667 13.4216 75.4997 16.2852 75.715 19.1532C75.8278 20.6534 75.7669 22.1626 75.9985 23.6539H76ZM37.9814 50.5243C42.6575 50.5199 47.3336 50.4618 52.0052 50.2728C55.933 50.1151 59.8624 49.9618 63.7651 49.42C67.5712 48.8916 69.6257 46.9672 70.3798 43.1675C71.0285 39.8991 71.2156 36.5816 71.3967 33.2641C71.658 28.4776 71.5585 23.6926 71.2349 18.9136C71.0553 16.2673 70.8385 13.6195 70.2017 11.0358C69.5025 8.19604 67.7345 6.38325 64.8532 5.8028C60.9594 5.01845 56.9929 4.94552 53.0443 4.77436C43.0167 4.33976 32.9744 4.35762 22.9453 4.77882C19.206 4.93659 15.4636 5.08244 11.7555 5.65992C8.54902 6.15851 6.5064 8.05168 5.75526 11.2174C5.30101 13.1284 5.07241 15.0736 4.9106 17.0234C4.45339 22.4915 4.30494 27.9686 4.60925 33.4501C4.8052 36.9894 4.96849 40.5376 5.80722 43.9995C6.47225 46.744 8.19275 48.5091 10.9642 49.1595C13.3097 49.7102 15.7115 49.8338 18.103 49.9796C24.7222 50.383 31.3504 50.511 37.9814 50.5214V50.5243Z" fill="white"/>
<path d="M29.1976 41.6004C28.8725 41.7864 28.4672 41.5498 28.4687 41.1747V41.1673C28.4642 32.3399 28.4642 23.5141 28.4657 14.6868C28.4657 13.7521 29.1293 13.3651 29.9383 13.828C37.6649 18.2409 45.3901 22.6538 53.1167 27.0668C53.1182 27.0668 53.1212 27.0697 53.1226 27.0697C53.4581 27.2617 53.4567 27.7484 53.1212 27.9404C45.1006 32.52 37.1513 37.0594 29.1991 41.5989L29.1976 41.6004ZM33.6732 33.9057C37.2003 31.8905 40.6487 29.9214 44.1535 27.9211C44.4771 27.7365 44.4771 27.2662 44.1535 27.0816C40.6279 25.0694 37.178 23.1018 33.6732 21.1015C33.3526 20.9184 32.9533 21.1506 32.9533 21.5197V33.4874C32.9533 33.858 33.3526 34.0887 33.6732 33.9057Z" fill="white"/>
</g>
<defs>
<clipPath id="clip0_1_47">
<rect width="76" height="55" fill="white"/>
</clipPath>
</defs>
</svg>
